#!OML:ASF F:\VICON\USERDATA\INSTALL\rory3\rory3.ASF
:FULLY-SPECIFIED
:DEGREES
1
root 0.6635829999999998 18.0401 -17.99429999999996 -1.7935199999999984 -3.165939999999999 -5.658909999999995
lfemur -25.683799999999962 2.0402299999999958 -14.117699999999989
ltibia 67.51930000000004
lfoot -4.512920000000001 -3.4467399999999984
ltoes -6.189819999999997
rfemur -9.513949999999998 7.674720000000008 33.221499999999985
rtibia 30.75549999999999
rfoot -15.484500000000004 -3.824680000000002
rtoes 11.010800000000001
lowerback -1.0 0.13722899999999996 3.421810000000002
upperback -0.1861829999999997 0.9053440000000003 2.49193
thorax -7.624259999999997 0.3590479999999999 0.538268
lowerneck -16.1622 -3.1491799999999994 -2.2760999999999996
upperneck 22.0065 -3.74248 -0.23559499999999844
head 9.67771 -1.9583 -0.18944000000000027
lclavicle -7.454429999999997e-16 5.963540000000006e-16
lhumerus -31.8404 3.7618399999999985 80.8296
lradius 26.8253
lwrist 6.4336800000000025
lhand -26.9775 21.8689
lfingers 7.12502
lthumb -0.3983689999999982 51.84830000000001
rclavicle -7.454429999999997e-16 5.963540000000006e-16
rhumerus -28.2727 -19.505300000000002 -77.8289
rradius 23.2195
rwrist 5.002669999999998
rhand -14.591700000000003 -1.0
rfingers 7.12502
rthumb 11.558499999999997 -15.025600000000008
2
root 0.6699840000000001 17.9728 -17.483900000000034 -1.6402700000000001 -3.18385 -5.922060000000005
lfemur -28.163999999999973 1.6978000000000002 -13.978699999999996
ltibia 63.78359999999999
lfoot -6.48955 -1.26724
ltoes -6.781699999999998
rfemur -7.957109999999996 7.343349999999999 33.65519999999999
rtibia 31.175700000000003
rfoot -17.41710000000002 -4.157909999999995
rtoes 10.951100000000004
lowerback -1.0 0.2071230000000001 3.9157300000000053
upperback -0.19291200000000053 1.0696500000000007 2.5252399999999984
thorax -7.547229999999999 0.4215739999999999 0.26417400000000063
lowerneck -15.7486 -3.03573 -2.348839999999999
upperneck 21.7309 -3.58307 -0.19518300000000077
head 9.50421 -1.88657 -0.13269399999999953
lclavicle -9.094399999999997e-15 -2.484809999999998e-14
lhumerus -32.7461 4.487609999999999 80.9964
lradius 26.334499999999995
lwrist 5.56424
lhand -26.7613 21.846
lfingers 7.12502
lthumb -0.1895179999999954 51.8256
rclavicle -9.094399999999997e-15 -2.484809999999998e-14
rhumerus -26.8886 -17.1563 -78.9599
rradius 25.0459
rwrist 3.52916
rhand -14.769999999999996 -1.0
rfingers 7.12502
rthumb 11.386599999999994 -19.461499999999987
3
root 0.6807030000000003 17.9593 -16.948800000000027 -1.3109099999999985 -4.223619999999999 -6.397769999999993
lfemur -29.635699999999947 1.949229999999994 -13.47969999999999
ltibia 57.99060000000002
lfoot -7.157549999999998 0.8966030000000074
ltoes -5.757110000000003
rfemur -5.877460000000008 7.675509999999997 34.25049999999999
rtibia 30.448800000000006
rfoot -18.78589999999998 -3.966689999999996
rtoes 9.845190000000006
lowerback -1.0 0.7272590000000003 4.816149999999994
upperback 0.054550000000000015 1.8381299999999987 2.3729800000000023
thorax -6.947369999999998 0.7730479999999995 -0.5412019999999974
lowerneck -15.9809 -3.2242899999999994 -1.98406
upperneck 21.6031 -3.8961499999999996 -0.34998699999999827
head 9.4938 -2.01803 -0.28909599999999946
lclavicle 1.103879999999998e-14 1.1628899999999984e-14
lhumerus -33.08059999999999 4.71797 81.0743
lradius 25.5767
lwrist 5.49883
lhand -26.818700000000003 21.997299999999996
lfingers 7.12502
lthumb -0.24494399999999672 51.9769
rclavicle 1.103879999999998e-14 1.1628899999999984e-14
rhumerus -25.289799999999996 -15.3564 -80.0585
rradius 26.5088
rwrist 1.0062900000000035
rhand -16.337899999999998 -1.0
rfingers 7.12502
rthumb 9.874180000000003 -6.032740000000004
4
root 0.6940879999999994 17.9566 -16.41370000000002 -0.8691729999999989 -4.467170000000003 -6.708190000000007
lfemur -30.4038 0.827627000000003 -13.0151
ltibia 50.14749999999998
lfoot -6.98092 2.8157699999999943
ltoes -7.728080000000007
rfemur -3.441039999999994 7.382779999999991 34.5448
rtibia 28.66449999999999
rfoot -19.477700000000016 -3.7291600000000003
rtoes 8.426909999999998
lowerback -1.0 0.9719220000000008 5.524200000000002
upperback -0.07975389999999985 2.2591499999999978 2.2405300000000024
thorax -7.006910000000001 0.9479440000000015 -1.1530999999999967
lowerneck -16.5904 -3.2819300000000005 -1.7554399999999994
upperneck 21.842 -4.040069999999999 -0.2888970000000023
head 9.68819 -2.0557199999999995 -0.3385470000000009
lclavicle 1.7629700000000032e-14 1.789059999999999e-15
lhumerus -33.9103 5.19185 81.0323
lradius 25.0378
lwrist 5.16614
lhand -26.4208 19.4841
lfingers 7.12502
lthumb 0.13933599999999702 49.4638
rclavicle 1.7629700000000032e-14 1.789059999999999e-15
rhumerus -24.21849999999999 -12.869900000000003 -81.1948
rradius 28.256700000000002
rwrist 0.026534000000004276
rhand -19.113300000000002 -1.0
rfingers 7.12502
rthumb 7.195780000000001 -7.64854
